<svg width="120" height="38" viewBox="0 0 120 38" fill="none" xmlns="http://www.w3.org/2000/svg">
<path d="M13.9852 0.317249L0.984351 8.44175C0.682872 8.63043 0.434343 8.8927 0.262144 9.20389C0.0899444 9.51507 -0.000265257 9.86495 5.8587e-07 10.2206V28.5188C-0.000266552 28.9084 0.108129 29.2903 0.313006 29.6217C0.517882 29.9531 0.811119 30.2208 1.15976 30.3946L14.1606 36.893C14.4515 37.0385 14.7723 37.1142 15.0975 37.1142C15.4227 37.1142 15.7435 37.0385 16.0344 36.893L29.0353 30.3946C29.3834 30.2203 29.676 29.9524 29.8805 29.6211C30.085 29.2898 30.1932 28.9081 30.1929 28.5188V10.2206C30.193 9.86499 30.1027 9.51518 29.9305 9.20403C29.7584 8.89288 29.5099 8.63058 29.2086 8.44175L16.2077 0.317249C15.8742 0.109892 15.4892 0 15.0965 0C14.7037 0 14.3188 0.109892 13.9852 0.317249ZM26.4144 26.0404L15.0954 31.7009L3.77438 26.0404V21.7955L15.0954 14.7193L26.4144 21.7955V26.0404ZM26.4144 16.135L15.0954 9.05878L3.77438 16.135V12.3606L15.0954 5.2844L26.4144 12.3606V16.135Z" fill="#40196D"/>
<path d="M34.83 29.2266L44.3123 7.51514H48.4004L57.9508 29.2266H53.8236L45.5134 9.6221H47.189L38.9118 29.2266H34.83ZM39.857 24.1439V20.8833H52.7897V24.1439H39.857Z" fill="#40196D"/>
<path d="M59.257 23.7311H62.7074C62.8801 24.5714 63.373 25.3115 64.0818 25.7947C64.8192 26.3189 65.8132 26.5817 67.0638 26.583C67.7062 26.6081 68.3479 26.5173 68.9582 26.3148C69.3539 26.1819 69.6953 25.9232 69.9301 25.578C70.122 25.2534 70.2205 24.882 70.2149 24.505C70.2286 24.2969 70.199 24.0882 70.1279 23.8921C70.0569 23.6961 69.946 23.5169 69.8022 23.3658C69.4478 23.056 69.0302 22.8272 68.5785 22.6952C67.9212 22.4888 67.2493 22.3322 66.5685 22.2267C65.743 22.0245 64.9279 21.8009 64.1231 21.556C63.363 21.3304 62.6301 21.0218 61.9377 20.6357C61.3229 20.297 60.7995 19.814 60.4127 19.2283C60.027 18.5971 59.8347 17.8667 59.8596 17.1275C59.8496 16.406 60.0289 15.6945 60.3797 15.0639C60.7375 14.4383 61.2364 13.9048 61.8366 13.5058C62.5155 13.0586 63.2627 12.7247 64.0488 12.5173C64.9565 12.2791 65.8921 12.1639 66.8306 12.1748C68.2806 12.1748 69.492 12.4093 70.4646 12.8785C71.384 13.301 72.1549 13.9906 72.6768 14.8575C73.1891 15.7418 73.4496 16.7495 73.43 17.7713H70.1468C69.9673 16.8799 69.6227 16.2298 69.115 15.8295C68.6073 15.4291 67.8294 15.2248 66.8017 15.2248C65.774 15.2248 64.9939 15.4044 64.4574 15.7614C64.2058 15.9153 63.999 16.1326 63.8577 16.3915C63.7165 16.6505 63.6457 16.942 63.6526 17.2369C63.6434 17.4522 63.6852 17.6666 63.7745 17.8627C63.8638 18.0589 63.998 18.2312 64.1664 18.3657C64.6149 18.6947 65.1199 18.9388 65.6564 19.0859C66.3043 19.2854 67.061 19.4862 67.9263 19.6885C68.7312 19.9113 69.4913 20.1404 70.2067 20.3756C70.8796 20.5915 71.5256 20.8837 72.132 21.2465C72.7274 21.5928 73.2158 22.0965 73.5434 22.7023C73.8711 23.3081 74.0254 23.9926 73.9893 24.6804C74.0127 25.6297 73.7226 26.5602 73.1638 27.328C72.5564 28.1086 71.7356 28.6964 70.801 29.0202C69.6081 29.4373 68.3498 29.6358 67.0864 29.6062C65.9702 29.6283 64.857 29.4815 63.7846 29.1708C62.9541 28.9276 62.1721 28.5422 61.4734 28.0317C60.9112 27.6194 60.4287 27.1082 60.0495 26.5232C59.7402 26.049 59.5082 25.5287 59.3623 24.9817C59.2487 24.5752 59.213 24.1509 59.257 23.7311Z" fill="#40196D"/>
<path d="M75.5409 12.5401H87.3366V15.5902H75.5409V12.5401ZM79.5629 8.04761H83.3146V29.2266H79.5629V8.04761Z" fill="#40196D"/>
<path d="M89.5819 12.5401H93.2964V29.2266H89.5819V12.5401ZM99.3326 15.7243C98.2499 15.6943 97.1796 15.9605 96.2371 16.494C95.4224 16.9646 94.7186 17.6051 94.1735 18.3719C93.7016 19.0232 93.3398 19.7476 93.1025 20.516L93.0694 18.6402C93.1191 18.2605 93.1978 17.8852 93.3047 17.5176C93.4638 16.9507 93.6709 16.3984 93.9238 15.8667C94.2237 15.2319 94.6067 14.64 95.0629 14.1064C95.5552 13.5281 96.1597 13.0557 96.8397 12.7176C97.6175 12.3426 98.4735 12.1587 99.3367 12.181L99.3326 15.7243Z" fill="#40196D"/>
<path d="M110.357 29.596C108.639 29.6244 106.936 29.2816 105.363 28.591C103.941 27.9645 102.73 26.9405 101.877 25.6421C101.028 24.3462 100.605 22.7716 100.606 20.9185C100.607 19.0653 101.031 17.4956 101.877 16.2093C102.731 14.8983 103.94 13.857 105.363 13.2067C106.93 12.4975 108.636 12.1451 110.357 12.1749C112.064 12.1437 113.756 12.4963 115.309 13.2067C116.715 13.8602 117.906 14.9002 118.743 16.2051C119.581 17.5135 120 19.0832 120 20.9143C120 22.7675 119.581 24.342 118.743 25.638C117.907 26.9318 116.715 27.956 115.309 28.5869C113.752 29.28 112.061 29.6244 110.357 29.596ZM110.357 26.546C111.374 26.5583 112.381 26.341 113.303 25.9104C114.185 25.4965 114.925 24.8318 115.431 23.9995C115.979 23.0674 116.252 21.9993 116.219 20.9185C116.253 19.837 115.979 18.7681 115.431 17.8354C114.921 17.0007 114.192 16.3224 113.322 15.875C112.404 15.4086 111.386 15.1728 110.357 15.1878C109.323 15.1733 108.301 15.4031 107.373 15.8584C106.488 16.2962 105.74 16.9687 105.212 17.8024C104.662 18.6512 104.387 19.6899 104.387 20.9185C104.354 22.0014 104.633 23.0709 105.191 23.9995C105.71 24.8333 106.461 25.4974 107.352 25.9104C108.294 26.343 109.32 26.5602 110.357 26.546Z" fill="#40196D"/>
</svg>
