<svg width="155" height="48" viewBox="0 0 155 48" fill="none" xmlns="http://www.w3.org/2000/svg">
<path d="M45 38.0397L57.2636 9.96021H62.5507L74.9024 38.0397H69.5646L58.8169 12.6852H60.984L50.2791 38.0397H45ZM51.5014 31.4662V27.2493H68.2274V31.4662H51.5014Z" fill="white"/>
<path d="M76.926 30.4377H81.3884C81.6117 31.5245 82.2492 32.4817 83.1659 33.1066C84.1196 33.7845 85.4051 34.1244 87.0224 34.1262C87.8533 34.1586 88.6833 34.0411 89.4725 33.7792C89.9843 33.6074 90.4258 33.2728 90.7295 32.8264C90.9777 32.4065 91.1051 31.9263 91.0978 31.4386C91.1155 31.1694 91.0772 30.8996 90.9854 30.646C90.8935 30.3924 90.75 30.1607 90.5641 29.9653C90.1058 29.5647 89.5657 29.2687 88.9814 29.0979C88.1313 28.8311 87.2624 28.6286 86.3819 28.4921C85.3143 28.2305 84.2601 27.9414 83.2192 27.6247C82.2363 27.3329 81.2884 26.9338 80.3929 26.4344C79.5977 25.9963 78.9209 25.3717 78.4206 24.6142C77.9218 23.7979 77.6731 22.8533 77.7053 21.8972C77.6923 20.9641 77.9242 20.0439 78.3779 19.2283C78.8407 18.4193 79.4858 17.7293 80.2621 17.2133C81.1402 16.6349 82.1065 16.2031 83.1232 15.9349C84.2971 15.6268 85.5072 15.4778 86.7208 15.4919C88.5962 15.4919 90.1628 15.7952 91.4208 16.402C92.6099 16.9484 93.6069 17.8403 94.2818 18.9615C94.9444 20.1052 95.2813 21.4084 95.256 22.7299H91.0098C90.7776 21.577 90.3319 20.7363 89.6753 20.2185C89.0188 19.7007 88.0126 19.4365 86.6835 19.4365C85.3544 19.4365 84.3455 19.6687 83.6516 20.1304C83.3262 20.3295 83.0587 20.6105 82.8761 20.9454C82.6934 21.2803 82.6019 21.6573 82.6107 22.0387C82.5989 22.3172 82.6529 22.5945 82.7684 22.8481C82.8839 23.1018 83.0575 23.3246 83.2753 23.4986C83.8553 23.9242 84.5084 24.2399 85.2022 24.43C86.0403 24.688 87.0189 24.9478 88.138 25.2094C89.1789 25.4976 90.1619 25.7938 91.0872 26.0981C91.9574 26.3773 92.7929 26.7552 93.5773 27.2244C94.3473 27.6722 94.9789 28.3237 95.4026 29.1072C95.8264 29.8907 96.0259 30.7759 95.9793 31.6654C96.0095 32.8931 95.6343 34.0966 94.9117 35.0896C94.1261 36.0992 93.0646 36.8594 91.8558 37.2781C90.3131 37.8176 88.6857 38.0744 87.0518 38.0361C85.6081 38.0646 84.1685 37.8747 82.7815 37.473C81.7075 37.1584 80.6961 36.6599 79.7924 35.9997C79.0653 35.4664 78.4413 34.8054 77.9508 34.0488C77.5508 33.4355 77.2508 32.7625 77.0621 32.0551C76.9152 31.5294 76.869 30.9806 76.926 30.4377Z" fill="white"/>
<path d="M97.9863 16.4589H113.242V20.4035H97.9863V16.4589ZM103.188 10.6487H108.04V38.0396H103.188V10.6487Z" fill="white"/>
<path d="M115.241 16.4589H120.045V38.0397H115.241V16.4589ZM127.852 20.577C126.452 20.5383 125.067 20.8825 123.848 21.5725C122.795 22.1812 121.885 23.0095 121.18 24.0012C120.569 24.8436 120.101 25.7804 119.794 26.7742L119.752 24.3482C119.816 23.8572 119.918 23.3718 120.056 22.8963C120.262 22.1631 120.53 21.4489 120.857 20.7612C121.244 19.9403 121.74 19.1747 122.33 18.4846C122.967 17.7368 123.748 17.1257 124.628 16.6884C125.634 16.2036 126.741 15.9657 127.857 15.9945L127.852 20.577Z" fill="white"/>
<path d="M142.468 38.0377C140.247 38.0744 138.044 37.631 136.009 36.738C134.17 35.9277 132.605 34.6033 131.501 32.9241C130.404 31.248 129.856 29.2117 129.857 26.815C129.859 24.4183 130.407 22.3882 131.501 20.7246C132.606 19.0291 134.169 17.6824 136.009 16.8413C138.037 15.9241 140.243 15.4683 142.468 15.5068C144.676 15.4666 146.865 15.9226 148.873 16.8413C150.692 17.6865 152.232 19.0315 153.314 20.7192C154.398 22.4113 154.94 24.4414 154.94 26.8096C154.94 29.2063 154.398 31.2427 153.314 32.9188C152.233 34.592 150.691 35.9166 148.873 36.7326C146.859 37.629 144.673 38.0745 142.468 38.0377ZM142.468 34.0931C143.784 34.109 145.087 33.828 146.279 33.2711C147.419 32.7357 148.377 31.8761 149.031 30.7997C149.74 29.5942 150.093 28.2128 150.05 26.815C150.093 25.4163 149.74 24.034 149.031 22.8276C148.372 21.7481 147.428 20.8709 146.303 20.2922C145.116 19.6891 143.8 19.384 142.468 19.4034C141.131 19.3848 139.809 19.682 138.609 20.2708C137.465 20.837 136.498 21.7067 135.814 22.7849C135.103 23.8828 134.747 25.2261 134.747 26.815C134.704 28.2155 135.066 29.5988 135.788 30.7997C136.459 31.878 137.43 32.737 138.582 33.2711C139.8 33.8306 141.128 34.1114 142.468 34.0931Z" fill="white"/>
<path d="M19.0871 0.410299L2.27307 10.9178C1.88316 11.1618 1.56174 11.501 1.33903 11.9034C1.11633 12.3059 0.999657 12.7584 1 13.2184V36.8835C0.999655 37.3874 1.13984 37.8813 1.40481 38.3099C1.66978 38.7385 2.04902 39.0847 2.49992 39.3095L19.314 47.7139C19.6902 47.9021 20.1051 48 20.5257 48C20.9463 48 21.3612 47.9021 21.7374 47.7139L38.5514 39.3095C39.0016 39.084 39.3802 38.7377 39.6446 38.3092C39.9091 37.8807 40.049 37.387 40.0487 36.8835V13.2184C40.0488 12.7584 39.932 12.306 39.7093 11.9036C39.4866 11.5012 39.1654 11.162 38.7756 10.9178L21.9616 0.410299C21.5301 0.142124 21.0323 0 20.5243 0C20.0164 0 19.5185 0.142124 19.0871 0.410299ZM35.1619 33.6782L20.523 40.999L5.88142 33.6782V28.1882L20.523 19.0366L35.1619 28.1882V33.6782ZM35.1619 20.8674L20.523 11.7158L5.88142 20.8674V15.986L20.523 6.83434L35.1619 15.986V20.8674Z" fill="white"/>
</svg>
