<svg width="313" height="164" viewBox="0 0 313 164" fill="none" xmlns="http://www.w3.org/2000/svg">
<g opacity="0.03">
<path fill-rule="evenodd" clip-rule="evenodd" d="M121.03 155.448C158.402 214.525 197.763 225.499 238.452 189.539L311.868 70.9189C313.042 68.4543 313.313 65.6191 312.631 62.9562C311.949 60.2933 310.36 57.9897 308.17 56.4862C305.979 54.9828 303.341 54.3852 300.759 54.8078C298.177 55.2304 295.834 56.6435 294.177 58.7766L249.951 133.498C249.577 134.269 249.063 134.953 248.437 135.512C247.81 136.071 247.086 136.493 246.304 136.754C245.522 137.014 244.699 137.108 243.883 137.031C243.066 136.953 242.273 136.705 241.548 136.3C240.116 135.459 239.042 134.071 238.549 132.421C238.056 130.771 238.179 128.984 238.894 127.427L306.561 17.6797C313.416 6.70498 297.494 -8.23935 288.87 5.53745C254.373 59.9441 226.732 105.011 192.014 160.585C187.812 167.356 176.756 160.585 181.621 153.58L264.324 18.3802C265.498 15.9156 265.77 13.0805 265.087 10.4176C264.405 7.75468 262.817 5.45103 260.626 3.94759C258.436 2.44415 255.797 1.84653 253.215 2.26911C250.634 2.6917 248.29 4.10481 246.634 6.23796C219.877 49.6699 210.81 64.6143 183.832 107.813C182.677 108.997 181.13 109.659 179.52 109.659C177.91 109.659 176.363 108.997 175.208 107.813C174.053 106.885 173.243 105.559 172.92 104.065C172.596 102.571 172.78 101.005 173.439 99.64L210.81 39.1622C211.984 36.6976 212.255 33.8624 211.573 31.1995C210.891 28.5366 209.302 26.233 207.112 24.7295C204.921 23.2261 202.283 22.6285 199.701 23.0511C197.12 23.4737 194.776 24.8868 193.12 27.0199L117.934 150.544L121.03 155.448Z" fill="white"/>
<path d="M238.45 189.305L192.012 266.361C182.707 283.651 171.899 299.989 159.727 315.164C127.883 346.454 86.9738 333.611 64.197 296.95L-36.8608 134.898C-44.6342 120.672 -46.9498 103.841 -43.3315 87.8677C-39.7131 71.8941 -30.4359 57.9917 -17.4077 49.0197C-4.37944 40.0476 11.4093 36.6881 26.7114 39.6319C42.0136 42.5757 55.6658 51.5991 64.8604 64.8464L116.385 149.142V150.776L119.48 155.68C157.958 214.523 197.614 225.731 238.45 189.305Z" fill="white"/>
</g>
</svg>
