<svg width="17" height="16" viewBox="0 0 17 16" fill="none" xmlns="http://www.w3.org/2000/svg">
<path d="M8.50331 3.95732C6.23189 3.95732 4.39975 5.76084 4.39975 7.99677C4.39975 10.2327 6.23189 12.0362 8.50331 12.0362C10.7747 12.0362 12.6069 10.2327 12.6069 7.99677C12.6069 5.76084 10.7747 3.95732 8.50331 3.95732ZM8.50331 10.6229C7.03546 10.6229 5.83546 9.44521 5.83546 7.99677C5.83546 6.54834 7.03189 5.3706 8.50331 5.3706C9.97474 5.3706 11.1712 6.54834 11.1712 7.99677C11.1712 9.44521 9.97117 10.6229 8.50331 10.6229ZM13.7319 3.79209C13.7319 4.31592 13.3033 4.73428 12.7747 4.73428C12.2426 4.73428 11.8176 4.3124 11.8176 3.79209C11.8176 3.27178 12.2462 2.8499 12.7747 2.8499C13.3033 2.8499 13.7319 3.27178 13.7319 3.79209ZM16.4497 4.74834C16.389 3.48623 16.0962 2.36826 15.1569 1.44717C14.2212 0.526074 13.0855 0.237793 11.8033 0.174512C10.4819 0.100684 6.52117 0.100684 5.19975 0.174512C3.92118 0.234277 2.78546 0.522558 1.84618 1.44365C0.906892 2.36474 0.617606 3.48271 0.55332 4.74482C0.47832 6.0456 0.47832 9.94443 0.55332 11.2452C0.614035 12.5073 0.906892 13.6253 1.84618 14.5464C2.78546 15.4675 3.9176 15.7558 5.19975 15.819C6.52117 15.8929 10.4819 15.8929 11.8033 15.819C13.0855 15.7593 14.2212 15.471 15.1569 14.5464C16.0926 13.6253 16.3855 12.5073 16.4497 11.2452C16.5247 9.94443 16.5247 6.04912 16.4497 4.74834ZM14.7426 12.6409C14.464 13.33 13.9247 13.8608 13.2212 14.1386C12.1676 14.5499 9.6676 14.455 8.50331 14.455C7.33903 14.455 4.83546 14.5464 3.78546 14.1386C3.08546 13.8643 2.54618 13.3335 2.26403 12.6409C1.84618 11.6038 1.94261 9.14287 1.94261 7.99677C1.94261 6.85068 1.84975 4.38623 2.26403 3.35263C2.5426 2.66357 3.08189 2.13271 3.78546 1.85498C4.83903 1.44365 7.33903 1.53857 8.50331 1.53857C9.6676 1.53857 12.1712 1.44717 13.2212 1.85498C13.9212 2.1292 14.4605 2.66006 14.7426 3.35263C15.1605 4.38974 15.064 6.85068 15.064 7.99677C15.064 9.14287 15.1605 11.6073 14.7426 12.6409Z" fill="white"/>
</svg>
