<svg width="17" height="15" viewBox="0 0 17 15" fill="none" xmlns="http://www.w3.org/2000/svg">
<path d="M4.13269 15V4.87953H0.702386V15H4.13269ZM2.41798 3.49692C3.61419 3.49692 4.35877 2.71978 4.35877 1.74862C4.33648 0.755565 3.61423 0 2.44068 0C1.26731 0 0.5 0.75558 0.5 1.74862C0.5 2.71983 1.2444 3.49692 2.39559 3.49692H2.41787H2.41798ZM6.03135 15H9.46165V9.34824C9.46165 9.04576 9.48394 8.7436 9.57452 8.52738C9.82251 7.92304 10.3869 7.29712 11.3345 7.29712C12.5758 7.29712 13.0724 8.2252 13.0724 9.5857V14.9999H16.5025V9.19695C16.5025 6.08834 14.8101 4.64193 12.5532 4.64193C10.7027 4.64193 9.89021 5.65626 9.43883 6.34712H9.46173V4.87932H6.03143C6.07644 5.82897 6.03143 14.9998 6.03143 14.9998L6.03135 15Z" fill="white"/>
</svg>
