<svg width="145" height="60" viewBox="0 0 145 60" fill="none" xmlns="http://www.w3.org/2000/svg">
<g clip-path="url(#clip0_2255_15412)">
<path d="M51.9456 18.759C42.9472 9.81491 28.6706 9.44207 19.2292 17.6037L21.7691 20.1303C25.7962 16.7525 30.9639 15.0484 36.2084 15.3691C41.4529 15.6897 46.375 18.0106 49.9614 21.8539C53.5478 25.6972 55.5254 30.7705 55.4872 36.0292C55.449 41.2879 53.3978 46.3318 49.756 50.1225C46.1142 53.9132 41.1589 56.1622 35.9103 56.4065C30.6616 56.6507 25.5192 54.8717 21.5416 51.4356C17.5641 47.9994 15.0541 43.1678 14.5285 37.9353C14.0029 32.7028 15.5017 27.4678 18.7162 23.308L16.1678 20.7772C8.529 30.2784 9.14564 44.2128 17.9839 52.9959C27.4296 62.3827 42.6903 62.3283 52.069 52.8737C61.4477 43.4191 61.3941 28.1458 51.9456 18.759Z" fill="white"/>
<path d="M21.9304 26.5023C17.398 32.7997 17.9794 41.6357 23.6568 47.2771C29.9467 53.528 40.1099 53.4912 46.3553 47.1952C52.6007 40.8992 52.564 30.7286 46.2742 24.4777C40.4331 18.6732 31.2512 18.2898 24.9705 23.3083L27.5267 25.8505C32.3949 22.2272 39.3254 22.61 43.7582 27.0156C48.642 31.8683 48.6702 39.7906 43.821 44.6785C38.9719 49.5665 31.0558 49.5954 26.1728 44.7421C21.9064 40.5052 21.3462 33.9182 24.507 29.0656L21.9304 26.5023Z" fill="white"/>
<path d="M27.1154 31.6568C26.0874 33.5701 25.7926 35.7932 26.2864 37.9087C26.7801 40.0242 28.0285 41.8865 29.7971 43.146C31.5657 44.4054 33.7329 44.9753 35.8916 44.7487C38.0503 44.5221 40.0521 43.5146 41.5212 41.9153C42.9902 40.316 43.8254 38.235 43.8699 36.063C43.9144 33.891 43.1652 31.7774 41.7629 30.1192C40.3606 28.461 38.4017 27.3721 36.2541 27.0571C34.1065 26.7422 31.9178 27.2227 30.0991 28.4085L32.7329 31.0255C33.8411 30.5142 35.0908 30.3982 36.274 30.6967C37.4572 30.9952 38.5027 31.6902 39.2364 32.6661C39.97 33.642 40.3477 34.84 40.3065 36.0606C40.2653 37.2812 39.8077 38.4509 39.0099 39.375C38.2121 40.2992 37.1222 40.922 35.9215 41.1399C34.7209 41.3578 33.4818 41.1576 32.4106 40.5727C31.3394 39.9877 30.5007 39.0533 30.0339 37.9249C29.5671 36.7965 29.5005 35.5421 29.8451 34.3705L27.1154 31.6568Z" fill="white"/>
<path d="M16.0722 17.3959L16.0384 7.90243C16.0418 7.71036 16.007 7.51953 15.9358 7.34113C15.8646 7.16273 15.7585 7.00036 15.6238 6.86355C15.489 6.72673 15.3284 6.61823 15.1512 6.5444C14.974 6.47057 14.7838 6.4329 14.5919 6.4336C14.4 6.43431 14.2101 6.47337 14.0335 6.5485C13.8568 6.62363 13.6969 6.73332 13.5632 6.87112C13.4295 7.00892 13.3246 7.17207 13.2547 7.35098C13.1848 7.5299 13.1514 7.72098 13.1562 7.91302L13.1802 14.5226C13.1802 14.5237 13.1798 14.5248 13.179 14.5256C13.1782 14.5264 13.1771 14.5268 13.176 14.5268L7.15284 14.548C6.96166 14.5486 6.77252 14.5873 6.59643 14.6618C6.42035 14.7363 6.26084 14.8452 6.12721 14.982C5.99357 15.1189 5.88849 15.281 5.81808 15.4588C5.74766 15.6367 5.71333 15.8269 5.71707 16.0182C5.7326 16.8147 6.41908 17.4347 7.21493 17.4305L16.068 17.3987C16.0689 17.3988 16.0698 17.3985 16.0706 17.398C16.0713 17.3975 16.0719 17.3968 16.0722 17.3959Z" fill="white"/>
<path d="M9.5644 10.9312L9.53053 1.43772C9.52932 1.0552 9.37633 0.68883 9.10522 0.419205C8.8341 0.149581 8.46708 -0.00121002 8.08489 7.31375e-06C7.7027 0.00122465 7.33664 0.15435 7.06725 0.425696C6.79786 0.697042 6.6472 1.06438 6.64842 1.4469L6.6717 8.05645C6.6717 8.05757 6.67126 8.05865 6.67046 8.05945C6.66967 8.06024 6.66859 8.06069 6.66747 8.06069L0.645013 8.08187C0.453862 8.08259 0.264762 8.12135 0.0887197 8.1959C-0.0873228 8.27045 -0.246792 8.3793 -0.380405 8.51612C-0.514018 8.65294 -0.619107 8.81499 -0.689555 8.99284C-0.760003 9.17069 -0.794403 9.36079 -0.790753 9.55208C-0.775231 10.3486 -0.0852165 10.9686 0.7071 10.9644L9.55946 10.9333C9.5604 10.9336 9.56141 10.9335 9.56231 10.9331C9.56321 10.9327 9.56395 10.9321 9.5644 10.9312Z" fill="white"/>
</g>
<path d="M89.9968 30.6831C90.1316 37.7597 86.21 44.9315 77.2554 44.9637L67.205 45L67.1055 17.0092L77.1567 16.9737C85.9308 16.9423 89.8661 23.766 89.9968 30.6831ZM71.9747 39.9046L77.2378 39.8852C83.0489 39.8651 85.3346 35.2177 85.2087 30.6605C85.0835 26.3024 82.7296 21.9523 77.1744 21.9716L71.9113 21.991L71.9747 39.9046Z" fill="white"/>
<path d="M107.727 25.33L112.036 25.3146L112.106 45.1494L107.871 45.1639L107.64 42.2682C106.617 44.6054 103.785 45.7419 101.76 45.789C96.3837 45.849 92.3943 42.2423 92.3692 35.2818C92.345 28.443 96.492 24.8477 101.797 24.8687C104.227 24.8598 106.552 26.0985 107.59 28.066L107.727 25.33ZM96.8622 35.2656C96.8752 39.0474 99.2769 41.2922 102.26 41.2816C109.33 41.2565 109.287 29.2269 102.217 29.2521C99.2324 29.2626 96.8469 31.4846 96.8606 35.2656H96.8622Z" fill="white"/>
<path d="M119.795 25.0124L120.133 27.2752C121.515 24.8475 123.382 24.4833 125.212 24.4737C127.08 24.4673 128.876 25.2549 129.869 26.3243L127.87 30.5417C126.952 29.7109 126.108 29.277 124.643 29.2818C122.301 29.2906 120.142 30.649 120.158 34.2637L120.195 44.5892L115.728 44.6052L115.658 25.03L119.795 25.0124Z" fill="white"/>
<path d="M139.148 19.7368L139.167 25.2803L144.08 25.262L144.094 29.4196L139.149 29.4379L139.179 37.8713C139.185 39.7327 140.13 40.6398 141.499 40.635C142.185 40.635 142.978 40.3917 143.627 40.0335L144.868 44.1464C143.607 44.7049 142.561 44.9443 141.223 44.9913C137.361 45.1637 134.827 42.7573 134.805 37.8904L134.782 29.4491L131.462 29.4611L131.447 25.3035L134.768 25.2915L134.751 20.265L139.148 19.7368Z" fill="white"/>
<path d="M79.4466 53.752H76.0775L75.5254 54.8683H74.209L77.0996 48.9473H78.4236L81.3142 54.8683H79.9886L79.4466 53.752ZM77.7625 50.191L76.5636 52.7118H78.9571L77.7625 50.191Z" fill="white"/>
<path d="M87.6328 54.866V48.9473H92.3697V50.0232H88.8765V51.6413H92.182V52.6745H88.8765V54.8683L87.6328 54.866Z" fill="white"/>
<path d="M104.606 54.8683H103.206L101.389 52.8918H100.256V54.8683H99.0801V48.9473C100.07 48.9473 101.059 48.9558 102.048 48.9558C103.522 48.9643 104.295 49.8936 104.295 50.9153C104.295 51.7267 103.902 52.5443 102.717 52.777L104.606 54.7939L104.606 54.8683ZM100.256 49.9945V51.8865H102.047C102.796 51.8865 103.117 51.414 103.117 50.9409C103.117 50.4677 102.79 49.9945 102.047 49.9945H100.256Z" fill="white"/>
<path d="M110.92 54.8683V48.9473H112.104V54.8683H110.92Z" fill="white"/>
<path d="M124.737 53.969C124.113 54.5833 123.304 54.8685 122.428 54.8685C120.174 54.8685 119.22 53.3198 119.211 51.7456C119.202 50.1714 120.234 48.5527 122.428 48.5527C122.843 48.5521 123.253 48.6336 123.636 48.7925C124.019 48.9514 124.366 49.1846 124.658 49.4785L123.895 50.2135C123.5 49.8397 122.974 49.635 122.43 49.643C120.964 49.643 120.331 50.7332 120.34 51.7456C120.349 52.758 120.929 53.7958 122.43 53.7958C122.998 53.7922 123.544 53.5725 123.955 53.1815L124.737 53.969Z" fill="white"/>
<path d="M135.893 53.752H132.525L131.972 54.8683H130.656L133.547 48.9473H134.871L137.762 54.8683H136.435L135.893 53.752ZM134.208 50.191L133.013 52.7118H135.409L134.208 50.191Z" fill="white"/>
<defs>
<clipPath id="clip0_2255_15412">
<rect width="59.2105" height="60" fill="white"/>
</clipPath>
</defs>
</svg>
