<svg width="117" height="39" viewBox="0 0 117 39" fill="none" xmlns="http://www.w3.org/2000/svg">
<path fill-rule="evenodd" clip-rule="evenodd" d="M71.9657 16.0086C74.6604 20.2684 77.4986 21.0597 80.4325 18.4668L85.7263 9.91351C85.8109 9.73579 85.8305 9.53136 85.7813 9.33935C85.7321 9.14734 85.6176 8.98123 85.4596 8.87282C85.3017 8.76442 85.1114 8.72132 84.9253 8.75179C84.7391 8.78227 84.5701 8.88416 84.4507 9.03797L81.2617 14.4259C81.2347 14.4814 81.1976 14.5308 81.1525 14.5711C81.1073 14.6114 81.0551 14.6418 80.9987 14.6606C80.9423 14.6794 80.883 14.6862 80.8241 14.6806C80.7652 14.675 80.708 14.6571 80.6557 14.6279C80.5525 14.5673 80.4751 14.4672 80.4395 14.3482C80.4039 14.2292 80.4128 14.1004 80.4644 13.9881L85.3436 6.07463C85.8379 5.28328 84.6899 4.20569 84.068 5.19909C81.5806 9.12216 79.5874 12.3717 77.084 16.379C76.7811 16.8673 75.9838 16.379 76.3346 15.8739L82.2981 6.12514C82.3827 5.94742 82.4023 5.74299 82.3531 5.55098C82.3039 5.35897 82.1894 5.19286 82.0314 5.08445C81.8735 4.97604 81.6832 4.93295 81.4971 4.96342C81.3109 4.99389 81.1419 5.09579 81.0225 5.2496C79.0931 8.38132 78.4394 9.4589 76.4941 12.5738C76.4108 12.6592 76.2992 12.7069 76.1831 12.7069C76.0671 12.7069 75.9555 12.6592 75.8722 12.5738C75.7889 12.5069 75.7305 12.4113 75.7072 12.3036C75.6839 12.1959 75.6972 12.0829 75.7447 11.9845L78.4394 7.62365C78.524 7.44593 78.5436 7.2415 78.4944 7.04949C78.4452 6.85748 78.3306 6.69137 78.1727 6.58296C78.0148 6.47455 77.8245 6.43146 77.6383 6.46193C77.4522 6.4924 77.2832 6.5943 77.1638 6.74811L71.7424 15.655L71.9657 16.0086Z" fill="#235643"/>
<path d="M80.4322 18.4504L77.0837 24.0066C76.4128 25.2533 75.6334 26.4314 74.7557 27.5256C72.4596 29.7818 69.5098 28.8558 67.8675 26.2123L60.5805 14.5273C60.02 13.5015 59.8531 12.2879 60.114 11.1361C60.3749 9.98432 61.0438 8.98186 61.9832 8.33492C62.9227 7.68798 64.0611 7.44574 65.1645 7.658C66.2679 7.87027 67.2523 8.52092 67.9153 9.47613L71.6305 15.5544V15.6722L71.8537 16.0258C74.6282 20.2688 77.4877 21.077 80.4322 18.4504Z" fill="#235643"/>
<path d="M10.1797 29.3067C14.6009 29.3067 18.0254 26.7 18.741 22.7643H15.342C14.7287 24.8344 12.7864 26.1633 10.2564 26.1633C6.83188 26.1633 4.63406 23.6077 4.63406 19.6465C4.63406 15.6597 6.80633 13.1552 10.2564 13.1552C12.7353 13.1552 14.6009 14.433 15.2398 16.6053H18.6899C18.051 12.593 14.7543 10.0119 10.3331 10.0119C4.86407 10.0119 1.20955 13.8708 1.20955 19.672C1.20955 25.5244 4.73629 29.3067 10.1797 29.3067ZM24.7217 29.3322C26.6895 29.3322 28.4018 28.4378 28.9385 27.1344L29.1685 29H31.903V21.3332C31.903 17.832 29.8074 15.992 26.4084 15.992C22.9839 15.992 20.735 17.7809 20.735 20.5154H23.3928C23.3928 19.1865 24.415 18.4198 26.2551 18.4198C27.8396 18.4198 28.8618 19.1098 28.8618 20.8221V21.1032L25.0795 21.3843C22.0894 21.6143 20.4027 23.071 20.4027 25.3966C20.4027 27.7733 22.0383 29.3322 24.7217 29.3322ZM25.744 26.9811C24.3384 26.9811 23.5717 26.4188 23.5717 25.2688C23.5717 24.2466 24.3128 23.6077 26.2551 23.4288L28.8874 23.2243V23.8888C28.8874 25.831 27.6607 26.9811 25.744 26.9811ZM42.8883 16.3242C42.3772 16.1964 41.9427 16.1453 41.5082 16.1453C39.8216 16.1453 38.6204 16.9887 38.0837 18.2409L37.9048 16.4009H34.9659V29H38.0837V22.8665C38.0837 20.4132 39.4893 19.212 41.7383 19.212H42.8883V16.3242ZM49.7623 29.3322C51.679 29.3322 53.3145 28.4889 54.0812 27.0322L54.2857 29H57.148V9.9863H54.0557V17.9853C53.2634 16.7331 51.7045 15.992 49.9411 15.992C46.1333 15.992 43.8332 18.8031 43.8332 22.7388C43.8332 26.6488 46.1077 29.3322 49.7623 29.3322ZM50.4523 26.47C48.28 26.47 46.9511 24.8855 46.9511 22.6365C46.9511 20.3876 48.28 18.7776 50.4523 18.7776C52.6245 18.7776 54.0301 20.3621 54.0301 22.6365C54.0301 24.911 52.6245 26.47 50.4523 26.47Z" fill="#235643"/>
<path d="M88.5086 29.3322C91.8054 29.3322 94.1054 27.6711 94.6421 24.911H91.7543C91.3965 26.1122 90.272 26.7766 88.5598 26.7766C86.4897 26.7766 85.3141 25.6522 85.0841 23.4288L94.591 23.4032V22.4577C94.591 18.522 92.1887 15.992 88.4064 15.992C84.7008 15.992 82.1196 18.7265 82.1196 22.6877C82.1196 26.5977 84.7519 29.3322 88.5086 29.3322ZM88.432 18.5476C90.2976 18.5476 91.4987 19.6976 91.4987 21.4354H85.1608C85.4675 19.5443 86.5919 18.5476 88.432 18.5476ZM96.1152 25.1666C96.1152 27.6455 98.1085 29.3322 101.252 29.3322C104.37 29.3322 106.542 27.7478 106.542 25.1921C106.542 23.2499 105.469 22.2788 103.348 21.7932L101.073 21.2565C99.9997 21.001 99.4374 20.5409 99.4374 19.8254C99.4374 18.8798 100.153 18.3176 101.38 18.3176C102.581 18.3176 103.296 19.0076 103.322 20.0809H106.286C106.261 17.6276 104.344 15.992 101.507 15.992C98.5941 15.992 96.4985 17.4742 96.4985 19.9532C96.4985 21.9721 97.5974 23.0454 99.8719 23.5566L102.146 24.0932C103.271 24.3488 103.603 24.8088 103.603 25.4477C103.603 26.3677 102.811 26.9555 101.354 26.9555C99.923 26.9555 99.1052 26.2655 99.0797 25.1666H96.1152ZM113.209 29V18.982H115.663V16.3753H113.209V12.4397H110.092V16.3753H107.664V18.982H110.092V29H113.209Z" fill="#235643"/>
</svg>
