<svg width="19" height="14" viewBox="0 0 19 14" fill="none" xmlns="http://www.w3.org/2000/svg">
<path d="M18.5 1.70441C17.826 1.98888 17.111 2.17561 16.379 2.25838C17.1415 1.82297 17.727 1.13349 18.0027 0.311979C17.2778 0.721787 16.4847 1.01052 15.6577 1.16571C14.984 0.481989 14.0243 0.0546875 12.9621 0.0546875C10.9226 0.0546875 9.26909 1.62992 9.26909 3.57277C9.26909 3.84855 9.30179 4.11703 9.36472 4.37459C6.29558 4.22782 3.57448 2.82722 1.75304 0.698687C1.43523 1.21829 1.25312 1.82271 1.25312 2.46738C1.25312 3.68799 1.90513 4.76478 2.89597 5.39572C2.30953 5.37822 1.73599 5.22732 1.22323 4.95562C1.22302 4.97036 1.22302 4.9851 1.22302 4.9999C1.22302 6.70448 2.49596 8.12645 4.18529 8.44966C3.64148 8.59056 3.07107 8.61118 2.51762 8.50995C2.98752 9.90767 4.35137 10.9248 5.96729 10.9532C4.70342 11.8968 3.11105 12.4593 1.38095 12.4593C1.08282 12.4593 0.788914 12.4426 0.5 12.4101C2.13427 13.4083 4.07539 13.9908 6.16086 13.9908C12.9535 13.9908 16.6679 8.62985 16.6679 3.98078C16.6679 3.82819 16.6644 3.67647 16.6573 3.52561C17.3802 3.0277 18.0042 2.41098 18.5 1.70441Z" fill="white"/>
</svg>
